<svg width="20" height="20" viewBox="0 0 20 20" fill="none" xmlns="http://www.w3.org/2000/svg">
<path d="M8.33333 2.5H3.33333C3.11232 2.5 2.90036 2.5878 2.74408 2.74408C2.5878 2.90036 2.5 3.11232 2.5 3.33333V8.33333C2.5 8.55435 2.5878 8.76631 2.74408 8.92259C2.90036 9.07887 3.11232 9.16667 3.33333 9.16667H8.33333C8.55435 9.16667 8.76631 9.07887 8.92259 8.92259C9.07887 8.76631 9.16667 8.55435 9.16667 8.33333V3.33333C9.16667 3.11232 9.07887 2.90036 8.92259 2.74408C8.76631 2.5878 8.55435 2.5 8.33333 2.5ZM7.5 7.5H4.16667V4.16667H7.5V7.5ZM11.6667 9.16667H16.6667C16.8877 9.16667 17.0996 9.07887 17.2559 8.92259C17.4122 8.76631 17.5 8.55435 17.5 8.33333V3.33333C17.5 3.11232 17.4122 2.90036 17.2559 2.74408C17.0996 2.5878 16.8877 2.5 16.6667 2.5H11.6667C11.4457 2.5 11.2337 2.5878 11.0774 2.74408C10.9211 2.90036 10.8333 3.11232 10.8333 3.33333V8.33333C10.8333 8.55435 10.9211 8.76631 11.0774 8.92259C11.2337 9.07887 11.4457 9.16667 11.6667 9.16667ZM12.5 4.16667H15.8333V7.5H12.5V4.16667ZM2.5 16.6667C2.5 16.8877 2.5878 17.0996 2.74408 17.2559C2.90036 17.4122 3.11232 17.5 3.33333 17.5H8.33333C8.55435 17.5 8.76631 17.4122 8.92259 17.2559C9.07887 17.0996 9.16667 16.8877 9.16667 16.6667V11.6667C9.16667 11.4457 9.07887 11.2337 8.92259 11.0774C8.76631 10.9211 8.55435 10.8333 8.33333 10.8333H3.33333C3.11232 10.8333 2.90036 10.9211 2.74408 11.0774C2.5878 11.2337 2.5 11.4457 2.5 11.6667V16.6667ZM4.16667 12.5H7.5V15.8333H4.16667V12.5ZM10.8333 16.6667C10.8333 16.8877 10.9211 17.0996 11.0774 17.2559C11.2337 17.4122 11.4457 17.5 11.6667 17.5H16.6667C16.8877 17.5 17.0996 17.4122 17.2559 17.2559C17.4122 17.0996 17.5 16.8877 17.5 16.6667V11.6667C17.5 11.4457 17.4122 11.2337 17.2559 11.0774C17.0996 10.9211 16.8877 10.8333 16.6667 10.8333H11.6667C11.4457 10.8333 11.2337 10.9211 11.0774 11.0774C10.9211 11.2337 10.8333 11.4457 10.8333 11.6667V16.6667ZM12.5 12.5H15.8333V15.8333H12.5V12.5Z" fill="white"/>
</svg>
