<svg width="71" height="19" viewBox="0 0 71 19" fill="none" xmlns="http://www.w3.org/2000/svg">
<path d="M29.512 13.632C29.5973 13.632 29.672 13.6667 29.736 13.736L30.352 14.4C29.8827 14.944 29.312 15.368 28.64 15.672C27.9733 15.976 27.1653 16.128 26.216 16.128C25.3947 16.128 24.648 15.9867 23.976 15.704C23.304 15.416 22.7307 15.016 22.256 14.504C21.7813 13.9867 21.4133 13.368 21.152 12.648C20.8907 11.928 20.76 11.136 20.76 10.272C20.76 9.408 20.896 8.616 21.168 7.896C21.44 7.176 21.8213 6.55733 22.312 6.04C22.808 5.52267 23.4 5.12267 24.088 4.84C24.776 4.552 25.536 4.408 26.368 4.408C27.184 4.408 27.904 4.53867 28.528 4.8C29.152 5.06133 29.7013 5.416 30.176 5.864L29.664 6.576C29.632 6.62933 29.5893 6.67467 29.536 6.712C29.488 6.744 29.4213 6.76 29.336 6.76C29.24 6.76 29.1227 6.70933 28.984 6.608C28.8453 6.50133 28.664 6.384 28.44 6.256C28.216 6.128 27.936 6.01333 27.6 5.912C27.264 5.80533 26.8507 5.752 26.36 5.752C25.768 5.752 25.2267 5.856 24.736 6.064C24.2453 6.26667 23.8213 6.56267 23.464 6.952C23.112 7.34133 22.8373 7.816 22.64 8.376C22.4427 8.936 22.344 9.568 22.344 10.272C22.344 10.9867 22.4453 11.624 22.648 12.184C22.856 12.744 23.136 13.2187 23.488 13.608C23.8453 13.992 24.264 14.2853 24.744 14.488C25.2293 14.6907 25.752 14.792 26.312 14.792C26.6533 14.792 26.96 14.7733 27.232 14.736C27.5093 14.6933 27.7627 14.6293 27.992 14.544C28.2267 14.4587 28.4427 14.352 28.64 14.224C28.8427 14.0907 29.0427 13.9333 29.24 13.752C29.3307 13.672 29.4213 13.632 29.512 13.632ZM35.0753 7.768C35.6673 7.768 36.2006 7.86667 36.6753 8.064C37.1499 8.26133 37.5553 8.54133 37.8913 8.904C38.2273 9.26667 38.4833 9.70667 38.6593 10.224C38.8406 10.736 38.9313 11.3093 38.9313 11.944C38.9313 12.584 38.8406 13.16 38.6593 13.672C38.4833 14.184 38.2273 14.6213 37.8913 14.984C37.5553 15.3467 37.1499 15.6267 36.6753 15.824C36.2006 16.016 35.6673 16.112 35.0753 16.112C34.4779 16.112 33.9393 16.016 33.4593 15.824C32.9846 15.6267 32.5793 15.3467 32.2433 14.984C31.9073 14.6213 31.6486 14.184 31.4673 13.672C31.2913 13.16 31.2033 12.584 31.2033 11.944C31.2033 11.3093 31.2913 10.736 31.4673 10.224C31.6486 9.70667 31.9073 9.26667 32.2433 8.904C32.5793 8.54133 32.9846 8.26133 33.4593 8.064C33.9393 7.86667 34.4779 7.768 35.0753 7.768ZM35.0753 15C35.8753 15 36.4726 14.7333 36.8673 14.2C37.2619 13.6613 37.4593 12.912 37.4593 11.952C37.4593 10.9867 37.2619 10.2347 36.8673 9.696C36.4726 9.15733 35.8753 8.888 35.0753 8.888C34.6699 8.888 34.3153 8.95733 34.0113 9.096C33.7126 9.23467 33.4619 9.43467 33.2593 9.696C33.0619 9.95733 32.9126 10.28 32.8113 10.664C32.7153 11.0427 32.6673 11.472 32.6673 11.952C32.6673 12.912 32.8646 13.6613 33.2593 14.2C33.6593 14.7333 34.2646 15 35.0753 15ZM41.0935 16V9.112L40.1975 9.008C40.0855 8.98133 39.9922 8.94133 39.9175 8.888C39.8482 8.82933 39.8135 8.74667 39.8135 8.64V8.056H41.0935V7.392C41.0935 6.928 41.1575 6.51733 41.2855 6.16C41.4188 5.79733 41.6055 5.49333 41.8455 5.248C42.0908 4.99733 42.3842 4.808 42.7255 4.68C43.0668 4.552 43.4508 4.488 43.8775 4.488C44.2402 4.488 44.5735 4.54133 44.8775 4.648L44.8455 5.368C44.8348 5.496 44.7628 5.56533 44.6295 5.576C44.5015 5.58667 44.3282 5.592 44.1095 5.592C43.8642 5.592 43.6402 5.624 43.4375 5.688C43.2402 5.74667 43.0695 5.848 42.9255 5.992C42.7815 6.136 42.6695 6.328 42.5895 6.568C42.5148 6.80267 42.4775 7.09333 42.4775 7.44V8.056H46.1335V7.184C46.1335 6.72 46.1975 6.30933 46.3255 5.952C46.4588 5.58933 46.6455 5.28533 46.8855 5.04C47.1308 4.78933 47.4242 4.6 47.7655 4.472C48.1068 4.344 48.4908 4.28 48.9175 4.28C49.2748 4.28 49.6082 4.33333 49.9175 4.44L49.8855 5.152C49.8748 5.28 49.8028 5.34933 49.6695 5.36C49.5415 5.37067 49.3682 5.376 49.1495 5.376C48.9042 5.376 48.6802 5.408 48.4775 5.472C48.2802 5.536 48.1095 5.64 47.9655 5.784C47.8215 5.928 47.7095 6.11733 47.6295 6.352C47.5548 6.58667 47.5175 6.87733 47.5175 7.224V8.056H49.8535V9.088H47.5655V16H46.1335V9.088H42.5255V16H41.0935ZM56.3645 11.064C56.3645 10.7333 56.3165 10.432 56.2205 10.16C56.1298 9.88267 55.9938 9.64533 55.8125 9.448C55.6365 9.24533 55.4205 9.09067 55.1645 8.984C54.9085 8.872 54.6178 8.816 54.2925 8.816C53.6098 8.816 53.0685 9.016 52.6685 9.416C52.2738 9.81067 52.0285 10.36 51.9325 11.064H56.3645ZM57.5165 14.864C57.3405 15.0773 57.1298 15.264 56.8845 15.424C56.6392 15.5787 56.3752 15.7067 56.0925 15.808C55.8152 15.9093 55.5272 15.984 55.2285 16.032C54.9298 16.0853 54.6338 16.112 54.3405 16.112C53.7805 16.112 53.2632 16.0187 52.7885 15.832C52.3192 15.64 51.9112 15.3627 51.5645 15C51.2232 14.632 50.9565 14.1787 50.7645 13.64C50.5725 13.1013 50.4765 12.4827 50.4765 11.784C50.4765 11.2187 50.5618 10.6907 50.7325 10.2C50.9085 9.70933 51.1592 9.28533 51.4845 8.928C51.8098 8.56533 52.2072 8.28267 52.6765 8.08C53.1458 7.872 53.6738 7.768 54.2605 7.768C54.7458 7.768 55.1938 7.85067 55.6045 8.016C56.0205 8.176 56.3778 8.41067 56.6765 8.72C56.9805 9.024 57.2178 9.40267 57.3885 9.856C57.5592 10.304 57.6445 10.816 57.6445 11.392C57.6445 11.616 57.6205 11.7653 57.5725 11.84C57.5245 11.9147 57.4338 11.952 57.3005 11.952H51.8845C51.9005 12.464 51.9698 12.9093 52.0925 13.288C52.2205 13.6667 52.3965 13.984 52.6205 14.24C52.8445 14.4907 53.1112 14.68 53.4205 14.808C53.7298 14.9307 54.0765 14.992 54.4605 14.992C54.8178 14.992 55.1245 14.952 55.3805 14.872C55.6418 14.7867 55.8658 14.696 56.0525 14.6C56.2392 14.504 56.3938 14.416 56.5165 14.336C56.6445 14.2507 56.7538 14.208 56.8445 14.208C56.9618 14.208 57.0525 14.2533 57.1165 14.344L57.5165 14.864ZM64.8176 11.064C64.8176 10.7333 64.7696 10.432 64.6736 10.16C64.583 9.88267 64.447 9.64533 64.2656 9.448C64.0896 9.24533 63.8736 9.09067 63.6176 8.984C63.3616 8.872 63.071 8.816 62.7456 8.816C62.063 8.816 61.5216 9.016 61.1216 9.416C60.727 9.81067 60.4816 10.36 60.3856 11.064H64.8176ZM65.9696 14.864C65.7936 15.0773 65.583 15.264 65.3376 15.424C65.0923 15.5787 64.8283 15.7067 64.5456 15.808C64.2683 15.9093 63.9803 15.984 63.6816 16.032C63.383 16.0853 63.087 16.112 62.7936 16.112C62.2336 16.112 61.7163 16.0187 61.2416 15.832C60.7723 15.64 60.3643 15.3627 60.0176 15C59.6763 14.632 59.4096 14.1787 59.2176 13.64C59.0256 13.1013 58.9296 12.4827 58.9296 11.784C58.9296 11.2187 59.015 10.6907 59.1856 10.2C59.3616 9.70933 59.6123 9.28533 59.9376 8.928C60.263 8.56533 60.6603 8.28267 61.1296 8.08C61.599 7.872 62.127 7.768 62.7136 7.768C63.199 7.768 63.647 7.85067 64.0576 8.016C64.4736 8.176 64.831 8.41067 65.1296 8.72C65.4336 9.024 65.671 9.40267 65.8416 9.856C66.0123 10.304 66.0976 10.816 66.0976 11.392C66.0976 11.616 66.0736 11.7653 66.0256 11.84C65.9776 11.9147 65.887 11.952 65.7536 11.952H60.3376C60.3536 12.464 60.423 12.9093 60.5456 13.288C60.6736 13.6667 60.8496 13.984 61.0736 14.24C61.2976 14.4907 61.5643 14.68 61.8736 14.808C62.183 14.9307 62.5296 14.992 62.9136 14.992C63.271 14.992 63.5776 14.952 63.8336 14.872C64.095 14.7867 64.319 14.696 64.5056 14.6C64.6923 14.504 64.847 14.416 64.9696 14.336C65.0976 14.2507 65.207 14.208 65.2976 14.208C65.415 14.208 65.5056 14.2533 65.5696 14.344L65.9696 14.864ZM67.6068 15.12C67.6068 14.9813 67.6308 14.8507 67.6788 14.728C67.7321 14.6053 67.8014 14.4987 67.8868 14.408C67.9774 14.3173 68.0841 14.2453 68.2068 14.192C68.3294 14.1387 68.4601 14.112 68.5988 14.112C68.7374 14.112 68.8681 14.1387 68.9908 14.192C69.1134 14.2453 69.2201 14.3173 69.3108 14.408C69.4014 14.4987 69.4734 14.6053 69.5268 14.728C69.5801 14.8507 69.6068 14.9813 69.6068 15.12C69.6068 15.264 69.5801 15.3973 69.5268 15.52C69.4734 15.6373 69.4014 15.7413 69.3108 15.832C69.2201 15.9227 69.1134 15.992 68.9908 16.04C68.8681 16.0933 68.7374 16.12 68.5988 16.12C68.4601 16.12 68.3294 16.0933 68.2068 16.04C68.0841 15.992 67.9774 15.9227 67.8868 15.832C67.8014 15.7413 67.7321 15.6373 67.6788 15.52C67.6308 15.3973 67.6068 15.264 67.6068 15.12Z" fill="white"/>
<g clip-path="url(#clip0_56_44)">
<path fill-rule="evenodd" clip-rule="evenodd" d="M6 17.6923C2.65269 17.6923 0 14.1553 0 9.84615C0 5.537 2.65269 2 6 2C9.34731 2 12 5.537 12 9.84615C12 14.1553 9.34731 17.6923 6 17.6923ZM5.61254 16.7492C5.62154 16.7353 5.63123 16.7219 5.64185 16.709C5.64808 16.7012 5.66354 16.6813 5.68708 16.6499C5.72792 16.5945 5.77431 16.5292 5.82462 16.4538C5.98336 16.2155 6.12643 15.9671 6.25292 15.7102C7.07146 14.0517 7.16492 12.3288 6.08538 10.7152C5.95259 10.5175 5.80762 10.3282 5.65131 10.1485C5.46989 9.93974 5.30164 9.71993 5.14754 9.49031C3.85662 7.56108 3.96831 5.50031 4.91954 3.57338C5.02408 3.36154 5.12908 3.17069 5.22923 3.00338C2.81469 3.51062 0.923077 6.36154 0.923077 9.84615C0.923077 13.5131 3.018 16.4785 5.61254 16.7492ZM6.38769 2.94315C6.37869 2.957 6.369 2.97038 6.35838 2.98331C6.35215 2.99115 6.33669 3.011 6.31315 3.04238C6.27231 3.09777 6.22592 3.16308 6.17562 3.23854C6.01687 3.47683 5.8738 3.7252 5.74731 3.98208C4.92877 5.64062 4.83531 7.36354 5.91485 8.97708C6.04315 9.16862 6.18762 9.35761 6.34892 9.54385C6.53034 9.75256 6.69859 9.97237 6.85269 10.202C8.14362 12.1312 8.03192 14.192 7.08069 16.1189C6.98516 16.313 6.88185 16.5032 6.771 16.6889C9.18531 16.1817 11.0769 13.3308 11.0769 9.84615C11.0769 6.17923 8.982 3.21385 6.38746 2.94315H6.38769Z" fill="white"/>
</g>
<defs>
<clipPath id="clip0_56_44">
<rect width="12" height="15.6923" fill="white" transform="translate(0 2)"/>
</clipPath>
</defs>
</svg>
