<svg width="12" height="16" viewBox="0 0 12 16" fill="none" xmlns="http://www.w3.org/2000/svg">
<path fill-rule="evenodd" clip-rule="evenodd" d="M6 15.6923C2.65269 15.6923 0 12.1553 0 7.84615C0 3.537 2.65269 0 6 0C9.34731 0 12 3.537 12 7.84615C12 12.1553 9.34731 15.6923 6 15.6923ZM5.61254 14.7492C5.62154 14.7353 5.63123 14.7219 5.64185 14.709C5.64808 14.7012 5.66354 14.6813 5.68708 14.6499C5.72792 14.5945 5.77431 14.5292 5.82462 14.4538C5.98336 14.2155 6.12643 13.9671 6.25292 13.7102C7.07146 12.0517 7.16492 10.3288 6.08538 8.71523C5.95259 8.51749 5.80762 8.3282 5.65131 8.14846C5.46989 7.93974 5.30164 7.71993 5.14754 7.49031C3.85662 5.56108 3.96831 3.50031 4.91954 1.57338C5.02408 1.36154 5.12908 1.17069 5.22923 1.00338C2.81469 1.51062 0.923077 4.36154 0.923077 7.84615C0.923077 11.5131 3.018 14.4785 5.61254 14.7492ZM6.38769 0.943154C6.37869 0.957 6.369 0.970385 6.35838 0.983308C6.35215 0.991154 6.33669 1.011 6.31315 1.04238C6.27231 1.09777 6.22592 1.16308 6.17562 1.23854C6.01687 1.47683 5.8738 1.7252 5.74731 1.98208C4.92877 3.64062 4.83531 5.36354 5.91485 6.97708C6.04315 7.16862 6.18762 7.35762 6.34892 7.54385C6.53034 7.75256 6.69859 7.97237 6.85269 8.202C8.14362 10.1312 8.03192 12.192 7.08069 14.1189C6.98516 14.313 6.88185 14.5032 6.771 14.6889C9.18531 14.1817 11.0769 11.3308 11.0769 7.84615C11.0769 4.17923 8.982 1.21385 6.38746 0.943154H6.38769Z" fill="white"/>
</svg>
