<svg width="20" height="20" viewBox="0 0 20 20" fill="none" xmlns="http://www.w3.org/2000/svg">
<path d="M10 7.5C9.33831 7.50437 8.70496 7.76916 8.23706 8.23706C7.76916 8.70496 7.50437 9.33831 7.5 10C7.5 11.3683 8.63167 12.5 10 12.5C11.3675 12.5 12.5 11.3683 12.5 10C12.5 8.6325 11.3675 7.5 10 7.5Z" fill="#676C6F"/>
<path d="M10 4.16675C3.63917 4.16675 1.72751 9.68092 1.71001 9.73675L1.62167 10.0001L1.70917 10.2634C1.72751 10.3192 3.63917 15.8334 10 15.8334C16.3608 15.8334 18.2725 10.3192 18.29 10.2634L18.3783 10.0001L18.2908 9.73675C18.2725 9.68092 16.3608 4.16675 10 4.16675ZM10 14.1667C5.54084 14.1667 3.81334 10.9617 3.39501 10.0001C3.81501 9.03508 5.54334 5.83341 10 5.83341C14.4592 5.83341 16.1867 9.03842 16.605 10.0001C16.185 10.9651 14.4567 14.1667 10 14.1667Z" fill="#676C6F"/>
</svg>
